####
#
# OBJ File Generated by Meshlab
#
####
# Object sphere_94.obj
#
# Vertices: 49
# Faces: 94
#
####
vn -0.041237 -0.967778 -0.248404
v -0.031138 -0.702135 -0.121142
vn 0.228900 -0.966818 0.113435
v 0.121036 -0.695786 0.085830
vn 0.361658 -0.871500 -0.331196
v 0.255438 -0.616848 -0.232146
vn -0.194909 -0.980084 0.038025
v -0.088917 -0.712559 0.059841
vn -0.437121 -0.797252 -0.416311
v -0.362741 -0.526137 -0.308998
vn -0.550737 -0.830371 0.084692
v -0.364963 -0.612978 0.031864
vn -0.154467 -0.847285 0.508181
v -0.125371 -0.612152 0.336708
vn 0.393257 -0.785324 0.478137
v 0.285796 -0.576437 0.327503
vn 0.318257 -0.671985 -0.668692
v 0.253648 -0.463208 -0.470001
vn -0.052075 -0.754750 -0.653942
v -0.036186 -0.537220 -0.466940
vn -0.782061 -0.515728 -0.349866
v -0.559588 -0.383034 -0.238534
vn -0.579898 -0.604828 0.545803
v -0.445641 -0.390565 0.418551
vn 0.220914 -0.547318 0.807242
v 0.115846 -0.407095 0.576159
vn 0.655250 -0.752852 0.062138
v 0.505441 -0.506351 0.041214
vn 0.646026 -0.500285 -0.576512
v 0.448649 -0.366543 -0.424316
vn 0.168592 -0.391883 -0.904436
v 0.110053 -0.276759 -0.643686
vn -0.434477 -0.314527 -0.843980
v -0.310222 -0.178667 -0.625588
vn -0.842601 -0.506084 0.184125
v -0.584903 -0.356509 0.184554
vn 0.731540 -0.316261 0.604010
v 0.512703 -0.163942 0.477327
vn 0.914572 -0.403628 -0.025337
v 0.664832 -0.317345 0.005122
vn -0.804069 0.119874 -0.582326
v -0.576743 0.051960 -0.416825
vn -0.979053 -0.180434 -0.094338
v -0.688542 -0.159254 -0.124391
vn -0.864379 -0.084316 0.495721
v -0.581845 -0.097651 0.428581
vn -0.236352 -0.230841 0.943849
v -0.145234 -0.248420 0.669813
vn 0.380603 -0.064639 0.922477
v 0.316266 -0.025575 0.632963
vn 0.978376 -0.002553 0.206817
v 0.709108 -0.060467 0.081824
vn 0.470239 0.051101 -0.881058
v 0.322350 0.030937 -0.641885
vn -0.009046 0.142686 -0.989727
v -0.007172 0.036004 -0.715172
vn -0.459983 0.237253 -0.855644
v -0.319633 0.187668 -0.607729
vn -0.980359 0.186116 -0.065247
v -0.679539 0.187669 -0.098623
vn 0.912714 0.062609 -0.403774
v 0.630150 0.076543 -0.344051
vn 0.651948 0.444794 -0.614103
v 0.498016 0.251893 -0.449133
vn 0.225639 0.685534 -0.692192
v 0.163550 0.542371 -0.453768
vn -0.375119 0.632211 -0.677934
v -0.184665 0.461076 -0.528967
vn -0.791826 0.533553 -0.297208
v -0.557724 0.417556 -0.183737
vn -0.876706 0.414001 0.244929
v -0.609500 0.293333 0.220284
vn -0.609118 0.430915 0.665798
v -0.461649 0.292470 0.469808
vn -0.251698 0.436018 0.864023
v -0.194788 0.284262 0.621198
vn 0.175817 0.313619 0.933130
v 0.138396 0.279342 0.650868
vn 0.691568 0.338969 0.637835
v 0.474333 0.254808 0.473116
vn 0.917818 0.362534 0.161798
v 0.653268 0.248646 0.138182
vn 0.786008 0.593376 -0.173485
v 0.580422 0.398152 -0.085093
vn 0.556866 0.710749 -0.429809
v 0.310726 0.538309 -0.334371
vn 0.202024 0.779206 0.593316
v 0.115221 0.572596 0.429503
vn 0.615249 0.734137 0.287248
v 0.390937 0.560875 0.189838
vn -0.594233 0.804287 -0.002950
v -0.447789 0.574149 -0.044822
vn -0.237013 0.893533 0.381344
v -0.126779 0.650411 0.296439
vn -0.189348 0.948482 -0.254024
v -0.176453 0.663113 -0.175593
vn 0.309564 0.948065 -0.073096
v 0.232132 0.691950 -0.082199
# 49 vertices, 0 vertices normals

f 2//2 1//1 3//3
f 3//3 1//1 10//10
f 10//10 1//1 5//5
f 1//1 4//4 5//5
f 5//5 4//4 6//6
f 6//6 4//4 7//7
f 4//4 2//2 7//7
f 7//7 2//2 8//8
f 8//8 2//2 14//14
f 14//14 2//2 3//3
f 14//14 3//3 15//15
f 15//15 3//3 9//9
f 3//3 10//10 9//9
f 5//5 6//6 11//11
f 11//11 6//6 18//18
f 18//18 6//6 12//12
f 6//6 7//7 12//12
f 12//12 7//7 24//24
f 24//24 7//7 13//13
f 7//7 8//8 13//13
f 14//14 15//15 20//20
f 15//15 9//9 16//16
f 9//9 10//10 16//16
f 16//16 10//10 17//17
f 10//10 5//5 17//17
f 17//17 5//5 11//11
f 11//11 18//18 22//22
f 13//13 8//8 19//19
f 8//8 14//14 19//19
f 19//19 14//14 20//20
f 20//20 15//15 31//31
f 31//31 15//15 27//27
f 15//15 16//16 27//27
f 27//27 16//16 28//28
f 16//16 17//17 28//28
f 17//17 11//11 21//21
f 11//11 22//22 21//21
f 22//22 18//18 23//23
f 18//18 12//12 23//23
f 12//12 24//24 23//23
f 24//24 13//13 25//25
f 13//13 19//19 25//25
f 19//19 20//20 26//26
f 26//26 20//20 31//31
f 31//31 27//27 32//32
f 28//28 17//17 29//29
f 17//17 21//21 29//29
f 21//21 22//22 30//30
f 22//22 23//23 30//30
f 30//30 23//23 36//36
f 36//36 23//23 37//37
f 23//23 24//24 37//37
f 37//37 24//24 38//38
f 38//38 24//24 39//39
f 24//24 25//25 39//39
f 39//39 25//25 40//40
f 25//25 19//19 40//40
f 19//19 26//26 40//40
f 40//40 26//26 41//41
f 26//26 31//31 41//41
f 32//32 27//27 33//33
f 27//27 28//28 33//33
f 33//33 28//28 34//34
f 28//28 29//29 34//34
f 29//29 21//21 34//34
f 34//34 21//21 35//35
f 21//21 30//30 35//35
f 30//30 36//36 35//35
f 41//41 31//31 42//42
f 31//31 32//32 42//42
f 42//42 32//32 43//43
f 32//32 33//33 43//43
f 34//34 35//35 46//46
f 35//35 36//36 46//46
f 36//36 37//37 46//46
f 46//46 37//37 47//47
f 37//37 38//38 47//47
f 47//47 38//38 44//44
f 38//38 39//39 44//44
f 39//39 40//40 44//44
f 44//44 40//40 45//45
f 40//40 41//41 45//45
f 41//41 42//42 45//45
f 45//45 42//42 49//49
f 42//42 43//43 49//49
f 43//43 33//33 49//49
f 33//33 34//34 48//48
f 34//34 46//46 48//48
f 47//47 44//44 49//49
f 44//44 45//45 49//49
f 49//49 33//33 48//48
f 48//48 46//46 47//47
f 2//2 4//4 1//1
f 48//48 47//47 49//49
# 94 faces, 0 coords texture

# End of File
